#!OML:ASF E:\emotionWalksFemale\Project 1\Capture day 1\Session 1\Female1.ASF
:FULLY-SPECIFIED
:DEGREES
920
root 9.94648 15.2468 39.9 -0.903222 -12.0137 0.7708
lowerback 6.65951 1.41705 -2.12742
upperback -3.60859 1.66848 -0.249756
thorax -7.58434 0.917299 0.712412
lowerneck 2.43062 -11.2803 -15.767
upperneck 2.31409 -16.0982 17.6672
head 3.03755 -8.09948 7.28387
rclavicle 1.37907e-014 -2.48481e-015
rhumerus -37.2562 10.1029 -89.7159
rradius 35.8065
rwrist 14.9155
rhand 1.77475 -54.4244
rfingers 7.12502
rthumb 27.2892 -82.4697
lclavicle 1.37907e-014 -2.48481e-015
lhumerus -50.2602 4.51061 82.291
lradius 33.7797
lwrist -16.2333
lhand -2.19608 -33.5812
lfingers 7.12502
lthumb 23.4853 -4.99469
rfemur -9.18704 6.99881 24.8281
rtibia 30.2952
rfoot -19.6655 -31
rtoes -0.836665
lfemur -4.52427 -19.5911 -28.9549
ltibia 28.8433
lfoot -27.448 24.4329
ltoes -3.92327
921
root 9.9251 15.2559 39.9148 -0.887945 -12.2076 0.820178
lowerback 6.60802 1.42858 -2.13456
upperback -3.63075 1.68259 -0.272606
thorax -7.57814 0.924046 0.691452
lowerneck 2.52423 -11.6617 -16.1502
upperneck 2.63537 -16.6895 17.7365
head 3.25546 -8.39554 7.29851
rclavicle -2.40529e-014 3.97569e-016
rhumerus -37.4431 10.162 -89.7883
rradius 36.2801
rwrist 14.7059
rhand 1.75038 -54.1731
rfingers 7.12502
rthumb 27.2658 -82.222
lclavicle -2.40529e-014 3.97569e-016
lhumerus -50.9701 4.90629 81.7717
lradius 33.6055
lwrist -17.0339
lhand -1.68462 -33.1528
lfingers 7.12502
lthumb 23.9758 -4.62998
rfemur -9.06706 6.96352 24.8218
rtibia 30.1714
rfoot -17.8608 -31.0734
rtoes -6.92872
lfemur -4.54453 -19.6577 -28.9401
ltibia 28.9623
lfoot -27.8984 24.3599
ltoes -0.71566
922
root 9.89944 15.2518 39.9238 -0.798187 -12.4214 0.927677
lowerback 6.60586 1.44204 -2.34222
upperback -3.70648 1.67808 -0.286509
thorax -7.66463 0.933092 0.792512
lowerneck 3.12074 -11.6929 -16.2229
upperneck 2.1159 -16.7663 17.9569
head 3.04461 -8.46798 7.42201
rclavicle 3.23895e-014 8.24956e-015
rhumerus -37.5048 10.2738 -89.8154
rradius 36.5101
rwrist 14.6924
rhand 2.21949 -53.9788
rfingers 7.12502
rthumb 27.7145 -81.9564
lclavicle 3.23895e-014 8.24956e-015
lhumerus -52.3756 6.21094 80.5387
lradius 35.1144
lwrist -18.9573
lhand -0.383854 -32.2019
lfingers 7.12502
lthumb 25.2227 -3.84879
rfemur -9.12711 6.99684 24.8094
rtibia 30.19
rfoot -17.2808 -31.0752
rtoes -9.11122
lfemur -4.65242 -19.511 -28.9211
ltibia 29.0142
lfoot -28.0225 24.3803
ltoes -0.206309
923
root 9.87155 15.2391 39.9333 -0.738311 -12.6178 1.15602
lowerback 6.509 1.42314 -2.66084
upperback -3.69889 1.61818 -0.372596
thorax -7.60612 0.917028 0.891071
lowerneck 2.95722 -12.0533 -16.2328
upperneck 2.44983 -17.2738 17.8131
head 3.24454 -8.70747 7.30384
rclavicle 3.62782e-015 0
rhumerus -37.3389 10.5501 -89.9067
rradius 36.7232
rwrist 14.7668
rhand 2.61393 -53.9519
rfingers 7.12502
rthumb 28.0916 -81.8683
lclavicle 3.62782e-015 0
lhumerus -52.9455 6.61703 79.8383
lradius 35.2373
lwrist -19.9525
lhand 0.176419 -32.1103
lfingers 7.12502
lthumb 25.7593 -3.83395
rfemur -9.11061 7.10212 24.6793
rtibia 29.9692
rfoot -16.8233 -31.0626
rtoes -10.1373
lfemur -4.83988 -18.9692 -28.9991
ltibia 29.2795
lfoot -27.7405 24.3669
ltoes -2.87788
924
root 9.84681 15.2204 39.9381 -0.618984 -12.7593 1.16744
lowerback 6.43326 1.3656 -2.71985
upperback -3.70768 1.53534 -0.404775
thorax -7.56927 0.878285 0.902929
lowerneck 2.89823 -12.352 -16.335
upperneck 2.48697 -17.693 17.9044
head 3.35593 -8.91123 7.29365
rclavicle 1.08213e-014 2.18663e-015
rhumerus -37.2612 10.9029 -90.0621
rradius 37.0661
rwrist 14.5979
rhand 2.68092 -54.1116
rfingers 7.12502
rthumb 28.1556 -82.0174
lclavicle 1.08213e-014 2.18663e-015
lhumerus -52.9202 5.95228 79.9551
lradius 34.112
lwrist -19.7917
lhand 0.828815 -32.3074
lfingers 7.12502
lthumb 26.384 -4.12315
rfemur -9.148 7.50452 24.7456
rtibia 29.8615
rfoot -19.1535 -30.4308
rtoes -2.59163
lfemur -4.98991 -17.9768 -28.7729
ltibia 29.416
lfoot -27.1437 24.0268
ltoes -6.80599
